<svg width="18" height="24" viewBox="0 0 18 24" fill="none" xmlns="http://www.w3.org/2000/svg">
<path fill-rule="evenodd" clip-rule="evenodd" d="M11.5034 1.296L8.99992 0L6.49642 1.296L3.70942 1.719L2.44642 4.239L0.440918 6.219L0.899918 9L0.440918 11.781L2.44642 13.761L3.70942 16.281L6.49642 16.704L8.99992 18L11.5034 16.704L14.2904 16.281L15.5534 13.761L17.5589 11.781L17.0999 9L17.5589 6.219L15.5534 4.239L14.2904 1.719L11.5034 1.296ZM3 23.9999V17.6909L6.027 18.1499L9 19.6889L11.973 18.1499L15 17.6909V23.9999L9 22.4999L3 23.9999Z" fill="#FFB800"/>
</svg>
